<svg xmlns="http://www.w3.org/2000/svg" viewBox="0 0 64 64"><rect width="64" height="64" fill="#14161b"/><g transform="translate(2 4) scale(.94)">
  <g fill="none" stroke="#6fcf97" stroke-linecap="round" stroke-linejoin="round">
    <path d="M44 20 C42 29 37 35 32 40" stroke-width="10"/>
    <path d="M32 40 C27 49 17 51 14 45 C11.5 40 16 36 20 39.5" stroke-width="5.5"/>
    <path d="M40 27 L30 22.5" stroke-width="3.6"/><path d="M43.5 28.5 L52 32" stroke-width="3.6"/>
    <path d="M33.5 37 L24.5 36" stroke-width="3.6"/><path d="M35.5 40 L40.5 48" stroke-width="3.6"/>
  </g>
  <g fill="#6fcf97">
    <ellipse cx="45" cy="14" rx="8" ry="7"/>
    <circle cx="28.8" cy="21.6" r="2.7"/><circle cx="53.4" cy="32.8" r="2.7"/>
    <circle cx="23" cy="35.8" r="2.7"/><circle cx="41.4" cy="49.4" r="2.7"/>
  </g>
  <circle cx="41.4" cy="11.6" r="2.3" fill="#ffd23f"/><circle cx="48.6" cy="11.6" r="2.3" fill="#ffd23f"/>
  <circle cx="41.4" cy="11.6" r=".9" fill="#14161b"/><circle cx="48.6" cy="11.6" r=".9" fill="#14161b"/>
  <circle cx="41" cy="27" r="1.7" fill="#ff8a5c"/><circle cx="37" cy="33" r="1.5" fill="#ff8a5c"/><circle cx="33" cy="38.5" r="1.3" fill="#ff8a5c"/><circle cx="27" cy="45" r="1.1" fill="#ff8a5c"/>
</g></svg>